<svg xmlns="http://www.w3.org/2000/svg" width="13.500" height="13.313" viewBox="0 0 13.500 13.313" fill="none">
  <path d="M 0.563 13.313 C 0.403 13.313 0.27 13.258 0.162 13.15 C 0.054 13.041 0 12.907 0 12.747 C 0 12.586 0.054 12.453 0.162 12.347 C 0.27 12.241 0.403 12.188 0.563 12.188 L 1.5 12.188 L 1.5 1.125 C 1.5 0.816 1.61 0.551 1.831 0.33 C 2.051 0.11 2.316 0 2.625 0 L 10.875 0 C 11.184 0 11.449 0.11 11.67 0.33 C 11.89 0.551 12 0.816 12 1.125 L 12 12.188 L 12.938 12.188 C 13.097 12.188 13.231 12.242 13.338 12.35 C 13.446 12.459 13.5 12.593 13.5 12.753 C 13.5 12.914 13.446 13.047 13.338 13.153 C 13.231 13.259 13.097 13.313 12.938 13.313 L 0.563 13.313 Z M 10.875 12.188 L 10.875 1.125 L 7.613 1.125 L 7.613 0.863 C 8.013 0.925 8.344 1.116 8.606 1.434 C 8.869 1.753 9 2.113 9 2.513 L 9 11.25 C 9 11.521 8.911 11.761 8.734 11.971 C 8.557 12.181 8.333 12.31 8.063 12.356 L 8.063 12.188 L 10.875 12.188 Z M 6.009 7.125 C 6.166 7.125 6.297 7.069 6.403 6.956 C 6.509 6.844 6.563 6.709 6.563 6.553 C 6.563 6.397 6.509 6.266 6.401 6.159 C 6.293 6.053 6.159 6 6 6 C 5.85 6 5.719 6.054 5.606 6.162 C 5.494 6.27 5.438 6.403 5.438 6.563 C 5.438 6.713 5.494 6.844 5.606 6.956 C 5.719 7.069 5.853 7.125 6.009 7.125 Z" fill="currentColor" fill-rule="nonzero"></path>
</svg>