<svg width="32" height="32" viewBox="0 0 32 32" fill="none" xmlns="http://www.w3.org/2000/svg">
<g filter="url(#filter0_d_6132_231922)">
<path d="M7 19C7.55228 19 8 19.4477 8 20V23C8 23.5523 8.44772 24 9 24H12C12.5523 24 13 24.4477 13 25C13 25.5523 12.5523 26 12 26H9C7.34315 26 6 24.6569 6 23V20C6 19.4477 6.44772 19 7 19ZM25 19C25.5523 19 26 19.4477 26 20V23C26 24.6569 24.6569 26 23 26H20C19.4477 26 19 25.5523 19 25C19 24.4477 19.4477 24 20 24H23C23.5523 24 24 23.5523 24 23V20C24 19.4477 24.4477 19 25 19ZM12 6C12.5523 6 13 6.44772 13 7C13 7.55228 12.5523 8 12 8H9C8.44772 8 8 8.44772 8 9V12C8 12.5523 7.55228 13 7 13C6.44772 13 6 12.5523 6 12V9C6 7.34315 7.34315 6 9 6H12ZM23 6C24.6569 6 26 7.34315 26 9V12C26 12.5523 25.5523 13 25 13C24.4477 13 24 12.5523 24 12V9C24 8.44772 23.5523 8 23 8H20C19.4477 8 19 7.55228 19 7C19 6.44772 19.4477 6 20 6H23Z" fill="white"></path>
</g>
<defs>
<filter id="filter0_d_6132_231922" x="-3" y="-1" width="38" height="38" filterUnits="userSpaceOnUse" color-interpolation-filters="sRGB">
<feFlood flood-opacity="0" result="BackgroundImageFix"></feFlood>
<feColorMatrix in="SourceAlpha" type="matrix" values="0 0 0 0 0 0 0 0 0 0 0 0 0 0 0 0 0 0 127 0" result="hardAlpha"></feColorMatrix>
<feOffset dy="2"></feOffset>
<feGaussianBlur stdDeviation="1.5"></feGaussianBlur>
<feComposite in2="hardAlpha" operator="out"></feComposite>
<feColorMatrix type="matrix" values="0 0 0 0 0.101961 0 0 0 0 0.133333 0 0 0 0 0.180392 0 0 0 0.55 0"></feColorMatrix>
<feBlend mode="normal" in2="BackgroundImageFix" result="effect1_dropShadow_6132_231922"></feBlend>
<feBlend mode="normal" in="SourceGraphic" in2="effect1_dropShadow_6132_231922" result="shape"></feBlend>
</filter>
</defs>
</svg>