<svg width="32" height="32" viewBox="0 0 32 32" fill="none" xmlns="http://www.w3.org/2000/svg">
<g filter="url(#filter0_d_6132_231919)">
<path d="M16 5C22.0751 5 27 9.92487 27 16C27 22.0751 22.0751 27 16 27C9.92487 27 5 22.0751 5 16C5 9.92487 9.92487 5 16 5ZM16 7C11.0294 7 7 11.0294 7 16C7 20.9706 11.0294 25 16 25C20.9706 25 25 20.9706 25 16C25 11.0294 20.9706 7 16 7ZM16 14C16.5523 14 17 14.4477 17 15V20C17 20.5523 16.5523 21 16 21C15.4477 21 15 20.5523 15 20V15C15 14.4477 15.4477 14 16 14ZM16 10C16.5523 10 17 10.4477 17 11C17 11.5523 16.5523 12 16 12C15.4477 12 15 11.5523 15 11C15 10.4477 15.4477 10 16 10Z" fill="white"></path>
</g>
<defs>
<filter id="filter0_d_6132_231919" x="-3" y="-1" width="38" height="38" filterUnits="userSpaceOnUse" color-interpolation-filters="sRGB">
<feFlood flood-opacity="0" result="BackgroundImageFix"></feFlood>
<feColorMatrix in="SourceAlpha" type="matrix" values="0 0 0 0 0 0 0 0 0 0 0 0 0 0 0 0 0 0 127 0" result="hardAlpha"></feColorMatrix>
<feOffset dy="2"></feOffset>
<feGaussianBlur stdDeviation="1.5"></feGaussianBlur>
<feComposite in2="hardAlpha" operator="out"></feComposite>
<feColorMatrix type="matrix" values="0 0 0 0 0.101961 0 0 0 0 0.133333 0 0 0 0 0.180392 0 0 0 0.55 0"></feColorMatrix>
<feBlend mode="normal" in2="BackgroundImageFix" result="effect1_dropShadow_6132_231919"></feBlend>
<feBlend mode="normal" in="SourceGraphic" in2="effect1_dropShadow_6132_231919" result="shape"></feBlend>
</filter>
</defs>
</svg>