<svg width="24" height="26" viewBox="0 0 24 26" fill="none" xmlns="http://www.w3.org/2000/svg">
<g filter="url(#filter0_d_6132_231861)">
<mask id="mask0_6132_231861" style="mask-type:alpha" maskUnits="userSpaceOnUse" x="0" y="0" width="24" height="24">
<rect width="24" height="24" fill="#D9D9D9"></rect>
</mask>
<g mask="url(#mask0_6132_231861)">
<path d="M14.4173 20.2555L9 18.3613L4.72425 20.0155C4.57092 20.0769 4.42267 20.0962 4.2795 20.0735C4.1365 20.0509 4.00475 20.0018 3.88425 19.9263C3.76375 19.8508 3.66958 19.7488 3.60175 19.6203C3.53392 19.492 3.5 19.3447 3.5 19.1785V6.08004C3.5 5.87754 3.55292 5.69854 3.65875 5.54304C3.76442 5.38738 3.91283 5.27429 4.104 5.20379L8.40775 3.74404C8.49892 3.71071 8.59383 3.68571 8.6925 3.66904C8.79117 3.65238 8.89367 3.64404 9 3.64404C9.10633 3.64404 9.20883 3.65238 9.3075 3.66904C9.40617 3.68571 9.50108 3.71071 9.59225 3.74404L15 5.63829L19.2758 3.98404C19.4291 3.92271 19.5773 3.90338 19.7205 3.92604C19.8635 3.94871 19.9953 3.99779 20.1158 4.07329C20.2363 4.14879 20.3304 4.25079 20.3983 4.37929C20.4661 4.50763 20.5 4.65488 20.5 4.82104V17.9625C20.5 18.1655 20.4423 18.344 20.327 18.4978C20.2115 18.6516 20.0551 18.7638 19.8577 18.8343L15.5828 20.265C15.4891 20.2984 15.3943 20.3218 15.2983 20.3353C15.2023 20.3488 15.1026 20.3555 14.9992 20.3555C14.8959 20.3555 14.7965 20.3472 14.701 20.3305C14.6055 20.3139 14.5109 20.2889 14.4173 20.2555ZM14.25 18.6268V6.92679L9.75 5.35354V17.0535L14.25 18.6268Z" fill="white"></path>
</g>
</g>
<defs>
<filter id="filter0_d_6132_231861" x="0.5" y="2.64404" width="23" height="22.7114" filterUnits="userSpaceOnUse" color-interpolation-filters="sRGB">
<feFlood flood-opacity="0" result="BackgroundImageFix"></feFlood>
<feColorMatrix in="SourceAlpha" type="matrix" values="0 0 0 0 0 0 0 0 0 0 0 0 0 0 0 0 0 0 127 0" result="hardAlpha"></feColorMatrix>
<feOffset dy="2"></feOffset>
<feGaussianBlur stdDeviation="1.5"></feGaussianBlur>
<feComposite in2="hardAlpha" operator="out"></feComposite>
<feColorMatrix type="matrix" values="0 0 0 0 0.101961 0 0 0 0 0.133333 0 0 0 0 0.180392 0 0 0 0.55 0"></feColorMatrix>
<feBlend mode="normal" in2="BackgroundImageFix" result="effect1_dropShadow_6132_231861"></feBlend>
<feBlend mode="normal" in="SourceGraphic" in2="effect1_dropShadow_6132_231861" result="shape"></feBlend>
</filter>
</defs>
</svg>