<svg width="32" height="32" viewBox="0 0 32 32" fill="none" xmlns="http://www.w3.org/2000/svg">
<g filter="url(#filter0_d_6132_231921)">
<path d="M19.1719 6C19.9674 6.00008 20.7304 6.31637 21.293 6.87891L25.1211 10.707C25.6836 11.2696 25.9999 12.0326 26 12.8281V13.1719C25.9999 13.9674 25.6836 14.7304 25.1211 15.293L15.293 25.1211C14.7304 25.6836 13.9674 25.9999 13.1719 26H12.8281C12.0326 25.9999 11.2696 25.6836 10.707 25.1211L6.87891 21.293C6.31637 20.7304 6.00008 19.9674 6 19.1719V18.8281C6.00008 18.0326 6.31637 17.2696 6.87891 16.707L16.707 6.87891C17.2696 6.31637 18.0326 6.00008 18.8281 6H19.1719ZM18.8281 8C18.563 8.00008 18.3086 8.1055 18.1211 8.29297L8.29297 18.1211C8.1055 18.3086 8.00008 18.563 8 18.8281V19.1719C8.00008 19.437 8.1055 19.6914 8.29297 19.8789L12.1211 23.707C12.3086 23.8945 12.563 23.9999 12.8281 24H13.1719C13.437 23.9999 13.6914 23.8945 13.8789 23.707L15.0859 22.5L13.293 20.707C12.9027 20.3165 12.9025 19.6834 13.293 19.293C13.6834 18.9025 14.3165 18.9027 14.707 19.293L16.5 21.0859L18.0859 19.5L15.293 16.707C14.9028 16.3165 14.9026 15.6834 15.293 15.293C15.6834 14.9026 16.3165 14.9028 16.707 15.293L19.5 18.0859L21.0859 16.5L19.293 14.707C18.9027 14.3165 18.9025 13.6834 19.293 13.293C19.6834 12.9025 20.3165 12.9027 20.707 13.293L22.5 15.0859L23.707 13.8789C23.8945 13.6914 23.9999 13.437 24 13.1719V12.8281C23.9999 12.563 23.8945 12.3086 23.707 12.1211L19.8789 8.29297C19.6914 8.1055 19.437 8.00008 19.1719 8H18.8281Z" fill="white"></path>
</g>
<defs>
<filter id="filter0_d_6132_231921" x="-3" y="-1" width="38" height="38" filterUnits="userSpaceOnUse" color-interpolation-filters="sRGB">
<feFlood flood-opacity="0" result="BackgroundImageFix"></feFlood>
<feColorMatrix in="SourceAlpha" type="matrix" values="0 0 0 0 0 0 0 0 0 0 0 0 0 0 0 0 0 0 127 0" result="hardAlpha"></feColorMatrix>
<feOffset dy="2"></feOffset>
<feGaussianBlur stdDeviation="1.5"></feGaussianBlur>
<feComposite in2="hardAlpha" operator="out"></feComposite>
<feColorMatrix type="matrix" values="0 0 0 0 0.101961 0 0 0 0 0.133333 0 0 0 0 0.180392 0 0 0 0.55 0"></feColorMatrix>
<feBlend mode="normal" in2="BackgroundImageFix" result="effect1_dropShadow_6132_231921"></feBlend>
<feBlend mode="normal" in="SourceGraphic" in2="effect1_dropShadow_6132_231921" result="shape"></feBlend>
</filter>
</defs>
</svg>