<svg width="24" height="24" viewBox="0 0 24 24" fill="none" xmlns="http://www.w3.org/2000/svg">
<g filter="url(#filter0_d_6132_231912)">
<path fill-rule="evenodd" clip-rule="evenodd" d="M6.29289 11.707C5.90237 11.3165 5.90237 10.6835 6.29289 10.293L11.2929 5.29297C11.4804 5.10543 11.7347 5 11.9999 5C12.2651 5 12.5194 5.10543 12.707 5.29297L17.707 10.293C18.0975 10.6835 18.0975 11.3165 17.707 11.707C17.3164 12.0976 16.6834 12.0976 16.2929 11.707L12.9999 8.41406L12.9999 18C12.9999 18.5523 12.5522 19 11.9999 19C11.4476 19 10.9999 18.5523 10.9999 18L10.9999 8.41406L7.70696 11.707C7.31643 12.0976 6.68342 12.0976 6.29289 11.707Z" fill="white"></path>
</g>
<defs>
<filter id="filter0_d_6132_231912" x="-3" y="-0.999998" width="30" height="30" filterUnits="userSpaceOnUse" color-interpolation-filters="sRGB">
<feFlood flood-opacity="0" result="BackgroundImageFix"></feFlood>
<feColorMatrix in="SourceAlpha" type="matrix" values="0 0 0 0 0 0 0 0 0 0 0 0 0 0 0 0 0 0 127 0" result="hardAlpha"></feColorMatrix>
<feOffset dy="2"></feOffset>
<feGaussianBlur stdDeviation="1.5"></feGaussianBlur>
<feComposite in2="hardAlpha" operator="out"></feComposite>
<feColorMatrix type="matrix" values="0 0 0 0 0.101961 0 0 0 0 0.133333 0 0 0 0 0.180392 0 0 0 0.55 0"></feColorMatrix>
<feBlend mode="normal" in2="BackgroundImageFix" result="effect1_dropShadow_6132_231912"></feBlend>
<feBlend mode="normal" in="SourceGraphic" in2="effect1_dropShadow_6132_231912" result="shape"></feBlend>
</filter>
</defs>
</svg>