<svg xmlns="http://www.w3.org/2000/svg" width="15.956" height="11.456" viewBox="0 0 15.956 11.456" fill="none">
  <path d="M 0.881 11.456 C 0.634 11.456 0.426 11.371 0.256 11.2 C 0.085 11.029 0 10.819 0 10.572 C 0 10.324 0.085 10.116 0.256 9.947 C 0.426 9.778 0.634 9.694 0.881 9.694 L 4.725 9.694 L 4.725 5.719 C 4.725 5.472 4.81 5.263 4.981 5.093 C 5.151 4.923 5.359 4.838 5.606 4.838 L 9.431 4.838 L 9.431 0.9 C 9.431 0.653 9.516 0.441 9.687 0.265 C 9.857 0.088 10.066 0 10.313 0 L 15.056 0 C 15.303 0 15.515 0.089 15.692 0.266 C 15.868 0.443 15.956 0.655 15.956 0.903 C 15.956 1.151 15.868 1.359 15.692 1.528 C 15.515 1.697 15.303 1.781 15.056 1.781 L 11.212 1.781 L 11.212 5.719 C 11.212 5.966 11.124 6.174 10.948 6.344 C 10.771 6.515 10.559 6.6 10.313 6.6 L 6.488 6.6 L 6.488 10.575 C 6.488 10.822 6.402 11.03 6.232 11.201 C 6.062 11.371 5.853 11.456 5.606 11.456 L 0.881 11.456 Z" fill="currentColor" fill-rule="nonzero"></path>
</svg>