<svg width="24" height="30" viewBox="0 0 24 30" fill="none" xmlns="http://www.w3.org/2000/svg">
<circle cx="12" cy="18" r="12" fill="white"></circle>
<mask id="path-2-outside-1_6132_231852" maskUnits="userSpaceOnUse" x="0" y="0.00634766" width="24" height="19" fill="black">
<rect fill="white" y="0.00634766" width="24" height="19"></rect>
<path d="M10.083 1.73505C11.1881 0.763448 12.8119 0.763448 13.917 1.73505C15.6632 3.27063 17.9108 5.79596 19.7285 8.67255C21.1002 10.8433 22.2743 13.2929 22.7598 15.7194C22.8826 16.302 22.9616 16.9008 22.9883 17.5134C22.9959 17.676 23 17.8381 23 17.9997H21C21 17.3827 20.9265 16.7446 20.7949 16.0925C19.9198 12.0384 16.3158 8.9997 12 8.9997C7.68408 8.9997 4.07919 12.0383 3.2041 16.0925C3.07253 16.7445 3.00003 17.3827 3 17.9997H1C1.00001 17.8371 1.00398 17.674 1.01172 17.5104C1.03876 16.8932 1.11751 16.2895 1.24219 15.7028C1.72964 13.2816 2.90291 10.8384 4.27148 8.67255C6.08917 5.79596 8.33678 3.27063 10.083 1.73505Z"></path>
</mask>
<path d="M10.083 1.73505C11.1881 0.763448 12.8119 0.763448 13.917 1.73505C15.6632 3.27063 17.9108 5.79596 19.7285 8.67255C21.1002 10.8433 22.2743 13.2929 22.7598 15.7194C22.8826 16.302 22.9616 16.9008 22.9883 17.5134C22.9959 17.676 23 17.8381 23 17.9997H21C21 17.3827 20.9265 16.7446 20.7949 16.0925C19.9198 12.0384 16.3158 8.9997 12 8.9997C7.68408 8.9997 4.07919 12.0383 3.2041 16.0925C3.07253 16.7445 3.00003 17.3827 3 17.9997H1C1.00001 17.8371 1.00398 17.674 1.01172 17.5104C1.03876 16.8932 1.11751 16.2895 1.24219 15.7028C1.72964 13.2816 2.90291 10.8384 4.27148 8.67255C6.08917 5.79596 8.33678 3.27063 10.083 1.73505Z" fill="#1A222E"></path>
<path d="M10.083 1.73505L9.42273 0.98403L9.42265 0.9841L10.083 1.73505ZM13.917 1.73505L14.5774 0.9841L14.5773 0.98403L13.917 1.73505ZM19.7285 8.67255L20.5739 8.13838L20.5739 8.13837L19.7285 8.67255ZM22.7598 15.7194L21.7791 15.9156L21.7813 15.9258L22.7598 15.7194ZM22.9883 17.5134L21.9892 17.5569L21.9894 17.5604L22.9883 17.5134ZM23 17.9997V18.9997H24L24 17.9997L23 17.9997ZM21 17.9997L20 17.9997L20 18.9997H21V17.9997ZM20.7949 16.0925L21.7753 15.8946L21.7724 15.8815L20.7949 16.0925ZM3.2041 16.0925L2.22652 15.8815L2.22386 15.8947L3.2041 16.0925ZM3 17.9997V18.9997H3.99996L4 17.9997L3 17.9997ZM1 17.9997L0 17.9997L-3.33786e-05 18.9997H1V17.9997ZM1.01172 17.5104L2.01061 17.5577L2.01076 17.5542L1.01172 17.5104ZM1.24219 15.7028L2.2204 15.9107L2.22252 15.9002L1.24219 15.7028ZM4.27148 8.67255L3.42611 8.13837L3.42611 8.13838L4.27148 8.67255ZM10.083 1.73505L10.7433 2.48607C11.4708 1.84644 12.5292 1.84644 13.2567 2.48607L13.917 1.73505L14.5773 0.98403C13.0946 -0.319546 10.9054 -0.319546 9.42273 0.98403L10.083 1.73505ZM13.917 1.73505L13.2566 2.486C14.9301 3.95759 17.1157 6.40965 18.8831 9.20673L19.7285 8.67255L20.5739 8.13837C18.706 5.18228 16.3964 2.58368 14.5774 0.9841L13.917 1.73505ZM19.7285 8.67255L18.8831 9.20672C20.2184 11.3199 21.3265 13.6527 21.7792 15.9156L22.7598 15.7194L23.7403 15.5233C23.2222 12.9331 21.982 10.3668 20.5739 8.13838L19.7285 8.67255ZM22.7598 15.7194L21.7813 15.9258C21.8934 16.4575 21.9651 17.0019 21.9892 17.5569L22.9883 17.5134L23.9873 17.4699C23.9582 16.7998 23.8718 16.1464 23.7382 15.5131L22.7598 15.7194ZM22.9883 17.5134L21.9894 17.5604C21.9963 17.7084 22 17.8549 22 17.9997L23 17.9997L24 17.9997C24 17.8213 23.9955 17.6435 23.9872 17.4664L22.9883 17.5134ZM23 17.9997V16.9997H21V17.9997V18.9997H23V17.9997ZM21 17.9997L22 17.9997C22 17.3042 21.9173 16.5989 21.7752 15.8947L20.7949 16.0925L19.8147 16.2903C19.9358 16.8903 20 17.4612 20 17.9997L21 17.9997ZM20.7949 16.0925L21.7724 15.8815C20.8 11.3771 16.7971 7.9997 12 7.9997V8.9997V9.9997C15.8346 9.9997 19.0395 12.6997 19.8174 16.3035L20.7949 16.0925ZM12 8.9997V7.9997C7.20301 7.9997 3.19893 11.3769 2.22661 15.8815L3.2041 16.0925L4.18159 16.3035C4.95945 12.6997 8.16516 9.9997 12 9.9997V8.9997ZM3.2041 16.0925L2.22386 15.8947C2.08155 16.6 2.00003 17.3052 2 17.9997L3 17.9997L4 17.9997C4.00002 17.4603 4.06351 16.8891 4.18435 16.2903L3.2041 16.0925ZM3 17.9997V16.9997H1V17.9997V18.9997H3V17.9997ZM1 17.9997L2 17.9997C2 17.8534 2.00358 17.7061 2.0106 17.5577L1.01172 17.5104L0.012836 17.4632C0.0043785 17.6419 5.96046e-06 17.8208 0 17.9997L1 17.9997ZM1.01172 17.5104L2.01076 17.5542C2.03533 16.9934 2.10688 16.4446 2.22035 15.9107L1.24219 15.7028L0.264028 15.495C0.128138 16.1344 0.0421881 16.793 0.0126768 17.4667L1.01172 17.5104ZM1.24219 15.7028L2.22252 15.9002C2.67711 13.6422 3.78444 11.3154 5.11686 9.20672L4.27148 8.67255L3.42611 8.13838C2.02137 10.3615 0.782164 12.9211 0.261858 15.5055L1.24219 15.7028ZM4.27148 8.67255L5.11685 9.20673C6.8843 6.40965 9.06991 3.95759 10.7434 2.486L10.083 1.73505L9.42265 0.9841C7.60365 2.58368 5.29404 5.18228 3.42611 8.13837L4.27148 8.67255Z" fill="white" mask="url(#path-2-outside-1_6132_231852)"></path>
<circle cx="12" cy="18" r="10" stroke="#1A222E" stroke-width="2"></circle>
</svg>